<svg width="230" height="265" viewBox="0 0 230 265" fill="none" xmlns="http://www.w3.org/2000/svg">
<path d="M199.499 35.7049C180.011 12.3437 152.669 0 120.422 0C96.2611 0 74.8836 7.31473 57.4137 21.3018C45.6627 27.9389 35.2208 37.1785 26.7127 48.4677C9.48619 71.1865 0 101.721 0 134.443C0 212.533 43.594 265 108.478 265C133.248 265 154.958 257.642 172.492 243.572C184.403 236.871 194.944 227.446 203.442 215.898C220.026 193.469 229.16 163.16 229.16 130.552C229.163 91.7646 218.905 58.9672 199.499 35.7049ZM121.215 237.209C64.8867 237.209 29.7177 192.218 29.7177 125.78C29.7177 91.669 41.7944 58.0602 65.9831 37.9523C79.0124 31.0265 93.2749 27.5491 107.68 27.786C163.213 27.786 199.443 69.7918 199.443 139.215C199.443 172.709 188.22 206.664 163.849 226.997C151.988 233.451 137.839 237.209 121.215 237.209Z" fill="#9B9B9B"/>
<path d="M121.215 67.6831C110.1 67.6831 100.969 71.7046 94.0509 78.9715C75.8892 86.1523 65.8965 107.61 65.8965 137.416C65.8965 170.789 82.0252 197.005 107.412 197.005C118.796 197.005 127.736 193.044 134.361 185.892C152.895 178.832 161.667 157.004 161.667 126.673C161.677 86.7533 144.75 67.6831 121.215 67.6831ZM120.157 169.219C103.295 169.219 95.6157 148.245 95.6157 128.757C95.6157 114.818 98.3038 103.184 103.193 95.9967V95.9887C104.935 95.6371 106.701 95.4632 108.47 95.469C124.053 95.469 131.956 108.881 131.956 135.329C131.956 152.554 129.035 162.803 125.11 168.903C123.468 169.145 121.812 169.251 120.157 169.219Z" fill="#9B9B9B"/>
<path d="M212.183 130.676C212.183 183.408 184.414 237.333 121.211 237.333C64.8828 237.333 29.7139 192.342 29.7139 125.904C29.7139 71.9803 59.8617 19.2471 120.418 19.2471C175.953 19.2471 212.183 61.2544 212.183 130.676ZM121.211 67.8073C93.9738 67.8073 78.6346 91.9399 78.6346 128.882C78.6346 162.256 94.7633 188.47 120.153 188.47C148.449 188.47 161.672 164.041 161.672 126.797C161.673 86.8775 144.748 67.8073 121.213 67.8073H121.211Z" fill="#9B9B9B"/>
<path d="M120.634 237.333C107.666 237.5 94.7949 234.787 82.7572 229.349C71.8302 224.311 62.0197 216.628 54.0199 206.845C45.8805 196.749 39.6518 184.891 35.7139 171.993C31.3102 157.501 29.0871 142.282 29.1365 126.964H78.0714C78.0629 127.568 78.0573 128.214 78.0573 128.877C78.0127 136.792 78.9955 144.672 80.9746 152.266C82.7271 159.08 85.5453 165.487 89.2964 171.185C92.7632 176.453 97.233 180.779 102.378 183.846C107.692 186.936 113.594 188.522 119.574 188.469C125.925 188.605 132.218 187.105 137.975 184.082C143.143 181.222 147.592 176.948 150.914 171.649C154.517 165.778 157.112 159.197 158.562 152.247C160.319 143.968 161.17 135.477 161.094 126.964H211.57C211.594 128.218 211.605 129.468 211.605 130.676C211.607 137.278 211.167 143.871 210.288 150.398C209.413 156.906 208.073 163.323 206.279 169.587C202.782 182.064 197.195 193.671 189.82 203.779C182.144 214.197 172.463 222.508 161.512 228.083C148.63 234.426 134.69 237.58 120.634 237.333Z" fill="#9B9B9B"/>
<path d="M120.636 242.115C91.9798 242.115 67.7713 230.926 50.6282 209.758C33.7922 188.966 24.8945 159.972 24.8945 125.906C24.8945 72.2337 54.6052 14.4668 119.843 14.4668C148.487 14.4668 172.622 25.2516 189.642 45.6544C206.788 66.2165 215.849 95.6092 215.849 130.68C215.849 159.939 207.764 186.986 193.082 206.843C176.019 229.917 150.967 242.115 120.636 242.115ZM119.843 24.029C60.4384 24.029 33.3833 76.8387 33.3833 125.904C33.3833 190.689 67.6312 232.552 120.636 232.552C180.545 232.552 207.363 181.385 207.363 130.678C207.361 64.8952 173.826 24.029 119.843 24.029ZM119.578 193.252C92.6335 193.252 73.8153 166.781 73.8153 128.882C73.8153 88.2595 91.7549 63.0254 120.636 63.0254C148.63 63.0254 165.344 86.8648 165.344 126.797C165.341 169.031 148.661 193.252 119.578 193.252ZM120.636 72.5892C96.6331 72.5892 82.3041 93.6296 82.3041 128.882C82.3041 161.152 97.6319 183.689 119.578 183.689C136.583 183.689 156.852 173.819 156.852 126.797C156.852 92.3464 143.652 72.5892 120.636 72.5892Z" fill="#9B9B9B"/>
</svg>
