<svg width="211" height="245" viewBox="0 0 211 245" fill="none" xmlns="http://www.w3.org/2000/svg">
<path d="M66.0156 28.9398C66.2306 28.9317 66.4457 28.9556 66.6536 29.0107C68.0367 29.8411 90.7078 70.4846 100.385 93.1572H102.046C113.936 71.0372 136.607 29.287 138.543 29.0107C138.586 29.0083 138.629 29.0083 138.672 29.0107C142.578 29.0107 182.506 39.8392 182.78 43.116C183.058 46.711 139.648 123.299 137.712 126.064C148.22 143.482 186.651 211.5 186.376 213.435C185.589 215.536 150.634 227.364 139.305 227.364C138.773 227.369 138.241 227.334 137.714 227.26C136.056 226.706 113.383 185.232 101.771 162.561H100.111C88.7751 185.232 66.3787 226.706 64.9972 226.706C64.2031 226.833 63.3996 226.891 62.5956 226.88C50.4521 226.88 17.955 217.425 17.4414 215.371C16.8888 213.435 54.4913 144.589 65.8276 126.064C64.1668 123.575 21.5891 46.9874 21.8654 43.3923C21.8654 40.2197 59.8324 28.9442 66.0185 28.9442L66.0156 28.9398ZM66.0185 11.5839C59.2422 11.5839 44.5742 15.8617 36.4322 18.4122C32.2556 19.7142 26.2359 21.7063 21.291 23.7404C16.3723 25.7657 4.96945 30.4502 4.51953 42.64C4.24755 47.9219 6.01397 51.9582 12.9509 65.4255C16.6067 72.523 21.631 81.9453 27.8663 93.4306C33.1699 103.191 40.6305 116.748 45.759 125.902C38.9711 137.634 29.585 154.555 21.9247 168.646C16.1973 179.179 11.2958 188.373 7.74709 195.237C1.00983 208.276 -1.30054 212.742 0.688664 219.94C3.26089 229.446 11.9628 232.538 17.1897 234.395C20.9612 235.735 25.9118 237.248 31.1286 238.656C38.854 240.742 53.2138 244.24 62.5913 244.24C64.096 244.249 65.5994 244.152 67.0906 243.951C75.357 242.997 79.5321 236.572 80.9788 234.353C81.8917 232.95 83.0316 231.072 84.4639 228.613C86.9146 224.409 90.2319 218.47 94.0584 211.44C96.3456 207.245 98.7167 202.831 101.068 198.413C103.495 202.898 105.933 207.369 108.266 211.598C112.172 218.678 115.559 224.662 118.056 228.908C122.664 236.743 125.443 241.472 132.205 243.729L133.625 244.204L135.104 244.428C136.493 244.633 137.895 244.733 139.299 244.727C147.961 244.727 161.856 240.934 171.988 237.753C177.404 236.052 182.606 234.242 186.64 232.653C192.426 230.373 199.627 227.538 202.627 219.532L203.29 217.761L203.557 215.89C204.462 209.551 202.594 206.085 195.645 193.186C192.097 186.601 187.11 177.57 181.226 167.07C172.806 152.049 163.984 136.577 157.842 126.03C163.66 115.882 172.092 100.828 176.254 93.3236C182.611 81.8599 187.736 72.426 191.492 65.2823C198.844 51.2855 200.519 47.4387 200.084 41.785V41.7329V41.6794C199.086 29.6719 187.919 25.3882 182.551 23.3252C177.565 21.4098 171.36 19.477 167.031 18.1938C158.798 15.7503 144.173 11.6533 138.676 11.6533C138.104 11.6533 137.53 11.6793 136.972 11.7299L136.529 11.769L136.095 11.8327C127.243 13.0985 123.342 19.5884 118.826 27.104C116.353 31.2184 113.007 37.0471 108.883 44.4325C106.691 48.3545 104.388 52.5195 102.083 56.7294C99.6687 52.0725 97.4436 47.893 95.7177 44.6755C92.2934 38.3101 88.9183 32.2239 86.2043 27.5279C81.9408 20.1411 79.995 16.7688 75.6144 14.1387L73.9739 13.1535L72.1597 12.5488C70.1848 11.8979 68.1167 11.5738 66.0373 11.5896L66.0185 11.5839Z" fill="black"/>
<path d="M73.2561 17.356C73.4706 17.3477 73.6852 17.3716 73.8926 17.4269C75.2771 18.2573 97.9483 58.9007 107.625 81.5733H109.279C121.166 59.4534 143.839 17.7047 145.775 17.4269C145.818 17.4246 145.861 17.4246 145.905 17.4269C149.811 17.4269 189.74 28.2554 190.015 31.5322C190.292 35.1287 146.881 111.715 144.946 114.48C155.453 131.898 193.886 199.916 193.61 201.852C192.821 203.952 157.866 215.78 146.538 215.78C146.006 215.785 145.474 215.75 144.947 215.676C143.289 215.124 120.617 173.65 109.004 150.977H107.345C96.0083 173.65 73.612 215.124 72.229 215.124C71.4348 215.249 70.6313 215.306 69.8274 215.296C57.6853 215.296 25.1882 205.843 24.6746 203.787C24.1205 201.852 61.7245 133.005 73.0608 114.48C71.4 111.993 28.8194 35.4035 29.0971 31.8085C29.0971 28.6359 67.0642 17.3603 73.2517 17.3603L73.2561 17.356ZM73.2517 0C66.4754 0 51.8059 4.27784 43.6654 6.82836C39.4873 8.13038 33.4691 10.1225 28.5243 12.1566C23.6055 14.182 12.2027 18.8663 11.7513 31.0562C11.4793 36.3395 13.2457 40.3758 20.1826 53.8416C23.8384 60.9391 28.8628 70.3615 35.0981 81.8482C40.4016 91.6076 47.8637 105.165 52.9908 114.318C46.2029 126.051 36.8167 142.973 29.1565 157.062C23.429 167.595 18.529 176.791 14.9788 183.654C8.24303 196.693 5.93121 201.159 7.92042 208.356C10.4912 217.862 19.196 220.954 24.4214 222.811C28.1944 224.151 33.145 225.664 38.3604 227.072C46.0857 229.158 60.4456 232.656 69.8231 232.656C71.3282 232.664 72.8321 232.568 74.3238 232.367C82.5887 231.412 86.7653 224.989 88.212 222.768C89.1249 221.365 90.2634 219.487 91.6957 217.027C94.1464 212.823 97.4636 206.885 101.292 199.855C103.577 195.66 105.95 191.246 108.301 186.828C110.727 191.312 113.165 195.784 115.5 200.013C119.406 207.093 122.792 213.078 125.289 217.323C129.896 225.158 132.668 229.887 139.438 232.144L140.859 232.618L142.336 232.843C143.725 233.048 145.127 233.148 146.531 233.142C155.191 233.142 169.087 229.35 179.219 226.168C184.633 224.468 189.838 222.657 193.87 221.068C199.657 218.788 206.857 215.953 209.857 207.947L210.521 206.176L210.788 204.305C211.692 197.966 209.824 194.5 202.876 181.601C199.33 175.015 194.34 165.985 188.456 155.485C180.04 140.464 171.215 124.992 165.075 114.445C170.892 104.297 179.325 89.2423 183.484 81.7383C189.841 70.2761 194.969 60.8407 198.722 53.6984C206.077 39.7002 207.752 35.8549 207.314 30.1998V30.1477V30.0942C206.317 18.0866 195.15 13.8029 189.785 11.7413C184.795 9.82446 178.59 7.89316 174.264 6.60849C166.03 4.16503 151.398 0.0679904 145.909 0.0679904C145.33 0.0679904 144.762 0.0939999 144.205 0.144634L143.762 0.183751L143.328 0.247415C134.476 1.51327 130.577 8.00455 126.059 15.5187C123.588 19.6331 120.242 25.4618 116.114 32.8487C113.926 36.7692 111.63 40.9342 109.315 45.1456C106.902 40.4872 104.677 36.3077 102.95 33.0917C99.5252 26.7263 96.1501 20.6386 93.4361 15.9426C89.1726 8.56446 87.2254 5.18353 82.8462 2.55344L81.2056 1.56819L79.3915 0.964934C77.4168 0.312979 75.3487 -0.011511 73.2691 0.00432666L73.2517 0Z" fill="black"/>
<path d="M102.988 150.971C91.6512 173.644 69.2564 215.118 67.8748 215.118C58.4713 216.776 20.8702 205.994 20.3176 203.782C19.7649 201.846 57.366 132.999 68.7023 114.474C67.043 111.987 24.4652 35.3978 24.7401 31.8027C24.7401 28.4869 66.214 16.3231 69.5327 17.4255C70.9143 18.2559 93.5869 58.8994 103.265 81.572H104.923C116.814 59.452 139.483 17.7032 141.419 17.4255C144.457 17.1506 185.381 28.2077 185.659 31.5264C185.935 35.1229 142.526 111.71 140.59 114.474C151.096 131.892 189.529 199.91 189.253 201.846C188.425 204.058 149.714 217.054 140.59 215.67C138.932 215.118 116.259 173.644 104.647 150.971H102.988Z" fill="#FCD015"/>
<path d="M141.309 215.67C139.651 215.118 116.979 173.644 105.373 150.971H103.707C92.3703 173.644 69.9754 215.118 68.5938 215.118C60.2276 216.593 29.5201 208.214 22.4775 204.794V200.179C29.3971 185.568 59.1976 131.237 69.2723 114.719H141.462C152.177 132.522 190.252 199.919 189.979 201.844C189.192 203.945 154.245 215.77 142.909 215.772C142.374 215.778 141.839 215.744 141.309 215.67Z" fill="#FBB500"/>
<path d="M146.414 220.102C145.7 220.105 144.987 220.057 144.28 219.957L143.557 219.782C141.591 219.125 140.776 218.853 126.894 193.708C120.654 182.408 113.672 169.395 108.192 158.877C102.899 169.25 96.0588 182.213 89.851 193.616C76.3244 218.458 75.3653 219.413 72.5616 219.449C65.9386 220.381 51.9071 217.143 44.0284 215.096C21.5569 209.259 20.9681 206.906 20.4473 204.825C19.8686 202.83 19.5981 201.856 40.5795 163.265C51.3415 143.47 62.2365 124.071 67.9958 114.426C64.4326 108.191 55.1304 91.4557 46.524 75.6159C24.8757 35.7768 24.621 33.3015 24.7469 31.5553C24.8201 30.6813 25.0971 29.8367 25.5559 29.0892C26.0147 28.3417 26.6424 27.7122 27.3885 27.2513C32.7616 23.3771 69.5626 11.4057 75.2452 13.298L75.6995 13.4427L76.1104 13.6901C77.0464 14.2528 78.4612 15.1035 91.4453 39.2343C94.9246 45.6967 102.796 60.5485 108.72 73.401C140.877 13.7219 142.247 13.5266 145.141 13.1129L145.364 13.0868C149.886 12.6861 186.785 22.8664 192.289 27.4872C192.857 27.9289 193.329 28.4813 193.677 29.1109C194.025 29.7406 194.242 30.4343 194.314 31.1502C194.459 32.96 194.603 34.8032 172.081 75.4003C163.19 91.434 153.686 108.178 149.986 114.468C155.7 124.095 166.877 143.624 177.082 161.827C198.279 199.648 198.154 200.523 197.88 202.445L197.814 202.911L197.649 203.345C197.021 205.023 196.161 207.32 173.634 214.234C166.205 216.54 153.467 220.102 146.414 220.102ZM104.649 146.631H111.644L112.854 148.992C124.382 171.498 142.511 204.486 147.111 211.45C155.441 211.233 179.634 203.618 188.063 200.021C181.25 186.553 151.761 134.197 141.217 116.714L139.759 114.296L141.379 111.981C143.823 108.324 178.5 46.9915 184.824 33.1163C177.564 29.8308 154.832 23.3858 147.55 22.0115C144.147 27.0605 133.719 45.2468 113.091 83.6233L111.861 85.9091H104.742L103.616 83.2732C94.8436 62.7171 76.4922 29.5704 71.6849 21.8393C64.5324 22.9287 41.394 29.812 34.2025 33.2957C40.2569 46.8671 74.4611 108.622 76.6717 112.088L78.1313 114.374L76.7483 116.737C66.4768 133.533 36.6749 188.059 30.1083 201.817C38.3921 205 61.7707 211.093 70.0097 210.964C74.5494 204.052 92.8457 170.234 103.45 149.027L104.649 146.631Z" fill="#FCD015"/>
<path d="M7.03125 34.1463L14.4485 22.2761L20.7126 33.3231C20.7126 33.3231 16.9382 41.672 16.5939 41.9005C16.2496 42.1291 7.03125 34.1463 7.03125 34.1463Z" fill="black"/>
<path d="M208.865 210.151L200.393 223.708L189.504 215.782L200.454 201.649L208.865 210.151Z" fill="black"/>
</svg>
